<svg width="800" height="420" viewBox="0 0 800 420" xmlns="http://www.w3.org/2000/svg">
  <defs>
    <linearGradient id="bgGrad" x1="0%" y1="0%" x2="0%" y2="100%">
      <stop offset="0%" style="stop-color:#00020a"/>
      <stop offset="100%" style="stop-color:#050015"/>
    </linearGradient>
    <linearGradient id="cardGrad1" x1="0%" y1="0%" x2="100%" y2="100%">
      <stop offset="0%" style="stop-color:#001a33"/>
      <stop offset="100%" style="stop-color:#050015"/>
    </linearGradient>
    <linearGradient id="cardGrad2" x1="0%" y1="0%" x2="100%" y2="100%">
      <stop offset="0%" style="stop-color:#1a0033"/>
      <stop offset="100%" style="stop-color:#050015"/>
    </linearGradient>
    <linearGradient id="cardGrad3" x1="0%" y1="0%" x2="100%" y2="100%">
      <stop offset="0%" style="stop-color:#001a1a"/>
      <stop offset="100%" style="stop-color:#050015"/>
    </linearGradient>

    <filter id="glowCyan" x="-30%" y="-30%" width="160%" height="160%">
      <feGaussianBlur stdDeviation="3" result="b"/>
      <feMerge><feMergeNode in="b"/><feMergeNode in="SourceGraphic"/></feMerge>
    </filter>
    <filter id="glowPink" x="-30%" y="-30%" width="160%" height="160%">
      <feGaussianBlur stdDeviation="3" result="b"/>
      <feMerge><feMergeNode in="b"/><feMergeNode in="SourceGraphic"/></feMerge>
    </filter>
    <filter id="glowGreen" x="-30%" y="-30%" width="160%" height="160%">
      <feGaussianBlur stdDeviation="3" result="b"/>
      <feMerge><feMergeNode in="b"/><feMergeNode in="SourceGraphic"/></feMerge>
    </filter>

    <!-- Scanline Pattern -->
    <pattern id="scanlines" x="0" y="0" width="800" height="4" patternUnits="userSpaceOnUse">
      <line x1="0" y1="0" x2="800" y2="0" stroke="#ffffff" stroke-width="0.3" opacity="0.04"/>
    </pattern>

    <!-- Grid Pattern -->
    <pattern id="grid" x="0" y="0" width="40" height="40" patternUnits="userSpaceOnUse">
      <path d="M 40 0 L 0 0 0 40" fill="none" stroke="#00ffff" stroke-width="0.2" opacity="0.15"/>
    </pattern>
  </defs>

  <!-- Background -->
  <rect width="800" height="420" fill="url(#bgGrad)" rx="10"/>
  <rect width="800" height="420" fill="url(#grid)" rx="10" opacity="0.5"/>
  <rect width="800" height="420" fill="url(#scanlines)" rx="10"/>
  <rect width="798" height="418" x="1" y="1" rx="9" fill="none" stroke="#00ffff" stroke-width="1" opacity="0.4" filter="url(#glowCyan)"/>

  <!-- Title -->
  <text x="400" y="38" fill="#ffffff" font-family="'Courier New', monospace" font-size="18" text-anchor="middle" font-weight="bold" letter-spacing="5" filter="url(#glowCyan)">&gt; FEATURED_PROJECTS_</text>
  <!-- Blinking cursor -->
  <rect x="582" y="22" width="10" height="18" fill="#00ffff" filter="url(#glowCyan)">
    <animate attributeName="opacity" values="1;0;1" dur="1s" repeatCount="indefinite"/>
  </rect>
  <line x1="100" y1="50" x2="700" y2="50" stroke="#00ffff" stroke-width="1" opacity="0.4" filter="url(#glowCyan)"/>

  <!-- ===== PROJECT CARD 1 — Top Left ===== -->
  <g transform="translate(20, 65)">
    <!-- Card BG -->
    <rect width="365" height="155" rx="6" fill="url(#cardGrad1)" stroke="#00ffff" stroke-width="1.5" filter="url(#glowCyan)" opacity="0.9"/>
    <!-- Corner accents -->
    <line x1="0" y1="15" x2="0" y2="0" stroke="#00ffff" stroke-width="3"/>
    <line x1="0" y1="0" x2="15" y2="0" stroke="#00ffff" stroke-width="3"/>
    <line x1="365" y1="15" x2="365" y2="0" stroke="#00ffff" stroke-width="3"/>
    <line x1="350" y1="0" x2="365" y2="0" stroke="#00ffff" stroke-width="3"/>
    <line x1="0" y1="140" x2="0" y2="155" stroke="#00ffff" stroke-width="3"/>
    <line x1="0" y1="155" x2="15" y2="155" stroke="#00ffff" stroke-width="3"/>
    <line x1="365" y1="140" x2="365" y2="155" stroke="#00ffff" stroke-width="3"/>
    <line x1="350" y1="155" x2="365" y2="155" stroke="#00ffff" stroke-width="3"/>
    <!-- Project ID tag -->
    <rect x="12" y="12" width="55" height="18" rx="3" fill="#00ffff" opacity="0.15"/>
    <text x="39" y="25" fill="#00ffff" font-family="'Courier New', monospace" font-size="10" text-anchor="middle" font-weight="bold">[P-001]</text>
    <!-- Status dot -->
    <circle cx="335" cy="21" r="5" fill="#00ff88">
      <animate attributeName="opacity" values="1;0.3;1" dur="2s" repeatCount="indefinite"/>
    </circle>
    <text x="325" y="25" fill="#00ff88" font-family="'Courier New', monospace" font-size="9" text-anchor="end">LIVE</text>
    <!-- Title -->
    <text x="20" y="55" fill="#ffffff" font-family="'Courier New', monospace" font-size="15" font-weight="bold">📱 Mobile E-Commerce App</text>
    <!-- Description -->
    <text x="20" y="78" fill="#8899aa" font-family="'Courier New', monospace" font-size="11">Full-stack shopping platform with real-time</text>
    <text x="20" y="94" fill="#8899aa" font-family="'Courier New', monospace" font-size="11">inventory, Stripe payments &amp; admin panel.</text>
    <!-- Tags -->
    <rect x="20" y="110" width="58" height="16" rx="3" fill="#00ffff" opacity="0.12" stroke="#00ffff" stroke-width="0.5"/>
    <text x="49" y="122" fill="#00ffff" font-family="'Courier New', monospace" font-size="10" text-anchor="middle">React</text>
    <rect x="85" y="110" width="62" height="16" rx="3" fill="#00ffff" opacity="0.12" stroke="#00ffff" stroke-width="0.5"/>
    <text x="116" y="122" fill="#00ffff" font-family="'Courier New', monospace" font-size="10" text-anchor="middle">Node.js</text>
    <rect x="154" y="110" width="70" height="16" rx="3" fill="#00ffff" opacity="0.12" stroke="#00ffff" stroke-width="0.5"/>
    <text x="189" y="122" fill="#00ffff" font-family="'Courier New', monospace" font-size="10" text-anchor="middle">MongoDB</text>
    <rect x="231" y="110" width="56" height="16" rx="3" fill="#00ffff" opacity="0.12" stroke="#00ffff" stroke-width="0.5"/>
    <text x="259" y="122" fill="#00ffff" font-family="'Courier New', monospace" font-size="10" text-anchor="middle">Stripe</text>
    <!-- Stars/Forks -->
    <text x="20" y="145" fill="#ffff00" font-family="'Courier New', monospace" font-size="11">⭐ 47</text>
    <text x="80" y="145" fill="#aaaaaa" font-family="'Courier New', monospace" font-size="11">🍴 12</text>
    <!-- Animated pulse on card -->
    <rect width="365" height="155" rx="6" fill="none" stroke="#00ffff" stroke-width="1">
      <animate attributeName="opacity" values="0.4;0.8;0.4" dur="3s" repeatCount="indefinite"/>
    </rect>
  </g>

  <!-- ===== PROJECT CARD 2 — Top Right ===== -->
  <g transform="translate(415, 65)">
    <rect width="365" height="155" rx="6" fill="url(#cardGrad2)" stroke="#ff00ff" stroke-width="1.5" filter="url(#glowPink)" opacity="0.9"/>
    <line x1="0" y1="15" x2="0" y2="0" stroke="#ff00ff" stroke-width="3"/>
    <line x1="0" y1="0" x2="15" y2="0" stroke="#ff00ff" stroke-width="3"/>
    <line x1="365" y1="15" x2="365" y2="0" stroke="#ff00ff" stroke-width="3"/>
    <line x1="350" y1="0" x2="365" y2="0" stroke="#ff00ff" stroke-width="3"/>
    <line x1="0" y1="140" x2="0" y2="155" stroke="#ff00ff" stroke-width="3"/>
    <line x1="0" y1="155" x2="15" y2="155" stroke="#ff00ff" stroke-width="3"/>
    <line x1="365" y1="140" x2="365" y2="155" stroke="#ff00ff" stroke-width="3"/>
    <line x1="350" y1="155" x2="365" y2="155" stroke="#ff00ff" stroke-width="3"/>
    <rect x="12" y="12" width="55" height="18" rx="3" fill="#ff00ff" opacity="0.15"/>
    <text x="39" y="25" fill="#ff00ff" font-family="'Courier New', monospace" font-size="10" text-anchor="middle" font-weight="bold">[P-002]</text>
    <circle cx="335" cy="21" r="5" fill="#00ff88">
      <animate attributeName="opacity" values="1;0.3;1" dur="2.5s" repeatCount="indefinite"/>
    </circle>
    <text x="325" y="25" fill="#00ff88" font-family="'Courier New', monospace" font-size="9" text-anchor="end">LIVE</text>
    <text x="20" y="55" fill="#ffffff" font-family="'Courier New', monospace" font-size="15" font-weight="bold">🤖 AI Chat Interface</text>
    <text x="20" y="78" fill="#8899aa" font-family="'Courier New', monospace" font-size="11">GPT-powered multi-room chat with context</text>
    <text x="20" y="94" fill="#8899aa" font-family="'Courier New', monospace" font-size="11">memory, auth &amp; conversation history.</text>
    <rect x="20" y="110" width="75" height="16" rx="3" fill="#ff00ff" opacity="0.12" stroke="#ff00ff" stroke-width="0.5"/>
    <text x="57" y="122" fill="#ff00ff" font-family="'Courier New', monospace" font-size="10" text-anchor="middle">Next.js</text>
    <rect x="102" y="110" width="75" height="16" rx="3" fill="#ff00ff" opacity="0.12" stroke="#ff00ff" stroke-width="0.5"/>
    <text x="139" y="122" fill="#ff00ff" font-family="'Courier New', monospace" font-size="10" text-anchor="middle">OpenAI</text>
    <rect x="184" y="110" width="72" height="16" rx="3" fill="#ff00ff" opacity="0.12" stroke="#ff00ff" stroke-width="0.5"/>
    <text x="220" y="122" fill="#ff00ff" font-family="'Courier New', monospace" font-size="10" text-anchor="middle">Socket.io</text>
    <rect x="263" y="110" width="62" height="16" rx="3" fill="#ff00ff" opacity="0.12" stroke="#ff00ff" stroke-width="0.5"/>
    <text x="294" y="122" fill="#ff00ff" font-family="'Courier New', monospace" font-size="10" text-anchor="middle">Redis</text>
    <text x="20" y="145" fill="#ffff00" font-family="'Courier New', monospace" font-size="11">⭐ 83</text>
    <text x="80" y="145" fill="#aaaaaa" font-family="'Courier New', monospace" font-size="11">🍴 24</text>
    <rect width="365" height="155" rx="6" fill="none" stroke="#ff00ff" stroke-width="1">
      <animate attributeName="opacity" values="0.4;0.8;0.4" dur="3.5s" repeatCount="indefinite"/>
    </rect>
  </g>

  <!-- ===== PROJECT CARD 3 — Bottom Left ===== -->
  <g transform="translate(20, 240)">
    <rect width="365" height="155" rx="6" fill="url(#cardGrad3)" stroke="#ffff00" stroke-width="1.5" filter="url(#glowGreen)" opacity="0.9"/>
    <line x1="0" y1="15" x2="0" y2="0" stroke="#ffff00" stroke-width="3"/>
    <line x1="0" y1="0" x2="15" y2="0" stroke="#ffff00" stroke-width="3"/>
    <line x1="365" y1="15" x2="365" y2="0" stroke="#ffff00" stroke-width="3"/>
    <line x1="350" y1="0" x2="365" y2="0" stroke="#ffff00" stroke-width="3"/>
    <line x1="0" y1="140" x2="0" y2="155" stroke="#ffff00" stroke-width="3"/>
    <line x1="0" y1="155" x2="15" y2="155" stroke="#ffff00" stroke-width="3"/>
    <line x1="365" y1="140" x2="365" y2="155" stroke="#ffff00" stroke-width="3"/>
    <line x1="350" y1="155" x2="365" y2="155" stroke="#ffff00" stroke-width="3"/>
    <rect x="12" y="12" width="55" height="18" rx="3" fill="#ffff00" opacity="0.15"/>
    <text x="39" y="25" fill="#ffff00" font-family="'Courier New', monospace" font-size="10" text-anchor="middle" font-weight="bold">[P-003]</text>
    <circle cx="335" cy="21" r="5" fill="#ff6b35">
      <animate attributeName="opacity" values="1;0.3;1" dur="1.8s" repeatCount="indefinite"/>
    </circle>
    <text x="320" y="25" fill="#ff6b35" font-family="'Courier New', monospace" font-size="9" text-anchor="end">WIP</text>
    <text x="20" y="55" fill="#ffffff" font-family="'Courier New', monospace" font-size="15" font-weight="bold">📊 DevAnalytics Dashboard</text>
    <text x="20" y="78" fill="#8899aa" font-family="'Courier New', monospace" font-size="11">Real-time developer metrics dashboard with</text>
    <text x="20" y="94" fill="#8899aa" font-family="'Courier New', monospace" font-size="11">GitHub API integration &amp; data visualization.</text>
    <rect x="20" y="110" width="65" height="16" rx="3" fill="#ffff00" opacity="0.12" stroke="#ffff00" stroke-width="0.5"/>
    <text x="52" y="122" fill="#ffff00" font-family="'Courier New', monospace" font-size="10" text-anchor="middle">React</text>
    <rect x="92" y="110" width="72" height="16" rx="3" fill="#ffff00" opacity="0.12" stroke="#ffff00" stroke-width="0.5"/>
    <text x="128" y="122" fill="#ffff00" font-family="'Courier New', monospace" font-size="10" text-anchor="middle">D3.js</text>
    <rect x="171" y="110" width="85" height="16" rx="3" fill="#ffff00" opacity="0.12" stroke="#ffff00" stroke-width="0.5"/>
    <text x="213" y="122" fill="#ffff00" font-family="'Courier New', monospace" font-size="10" text-anchor="middle">GitHub API</text>
    <rect x="263" y="110" width="68" height="16" rx="3" fill="#ffff00" opacity="0.12" stroke="#ffff00" stroke-width="0.5"/>
    <text x="297" y="122" fill="#ffff00" font-family="'Courier New', monospace" font-size="10" text-anchor="middle">Python</text>
    <text x="20" y="145" fill="#ffff00" font-family="'Courier New', monospace" font-size="11">⭐ 29</text>
    <text x="80" y="145" fill="#aaaaaa" font-family="'Courier New', monospace" font-size="11">🍴 7</text>
    <rect width="365" height="155" rx="6" fill="none" stroke="#ffff00" stroke-width="1">
      <animate attributeName="opacity" values="0.4;0.8;0.4" dur="2.8s" repeatCount="indefinite"/>
    </rect>
  </g>

  <!-- ===== PROJECT CARD 4 — Bottom Right ===== -->
  <g transform="translate(415, 240)">
    <rect width="365" height="155" rx="6" fill="url(#cardGrad1)" stroke="#00ffff" stroke-width="1.5" filter="url(#glowCyan)" opacity="0.9"/>
    <line x1="0" y1="15" x2="0" y2="0" stroke="#00ffff" stroke-width="3"/>
    <line x1="0" y1="0" x2="15" y2="0" stroke="#00ffff" stroke-width="3"/>
    <line x1="365" y1="15" x2="365" y2="0" stroke="#00ffff" stroke-width="3"/>
    <line x1="350" y1="0" x2="365" y2="0" stroke="#00ffff" stroke-width="3"/>
    <line x1="0" y1="140" x2="0" y2="155" stroke="#00ffff" stroke-width="3"/>
    <line x1="0" y1="155" x2="15" y2="155" stroke="#00ffff" stroke-width="3"/>
    <line x1="365" y1="140" x2="365" y2="155" stroke="#00ffff" stroke-width="3"/>
    <line x1="350" y1="155" x2="365" y2="155" stroke="#00ffff" stroke-width="3"/>
    <rect x="12" y="12" width="55" height="18" rx="3" fill="#00ffff" opacity="0.15"/>
    <text x="39" y="25" fill="#00ffff" font-family="'Courier New', monospace" font-size="10" text-anchor="middle" font-weight="bold">[P-004]</text>
    <circle cx="335" cy="21" r="5" fill="#00ff88">
      <animate attributeName="opacity" values="1;0.3;1" dur="2.2s" repeatCount="indefinite"/>
    </circle>
    <text x="325" y="25" fill="#00ff88" font-family="'Courier New', monospace" font-size="9" text-anchor="end">LIVE</text>
    <text x="20" y="55" fill="#ffffff" font-family="'Courier New', monospace" font-size="15" font-weight="bold">🌐 Portfolio v3.0</text>
    <text x="20" y="78" fill="#8899aa" font-family="'Courier New', monospace" font-size="11">Personal portfolio with GSAP animations,</text>
    <text x="20" y="94" fill="#8899aa" font-family="'Courier New', monospace" font-size="11">glassmorphism UI &amp; full SEO optimization.</text>
    <rect x="20" y="110" width="75" height="16" rx="3" fill="#00ffff" opacity="0.12" stroke="#00ffff" stroke-width="0.5"/>
    <text x="57" y="122" fill="#00ffff" font-family="'Courier New', monospace" font-size="10" text-anchor="middle">Next.js</text>
    <rect x="102" y="110" width="62" height="16" rx="3" fill="#00ffff" opacity="0.12" stroke="#00ffff" stroke-width="0.5"/>
    <text x="133" y="122" fill="#00ffff" font-family="'Courier New', monospace" font-size="10" text-anchor="middle">GSAP</text>
    <rect x="171" y="110" width="90" height="16" rx="3" fill="#00ffff" opacity="0.12" stroke="#00ffff" stroke-width="0.5"/>
    <text x="216" y="122" fill="#00ffff" font-family="'Courier New', monospace" font-size="10" text-anchor="middle">Tailwind</text>
    <rect x="268" y="110" width="68" height="16" rx="3" fill="#00ffff" opacity="0.12" stroke="#00ffff" stroke-width="0.5"/>
    <text x="302" y="122" fill="#00ffff" font-family="'Courier New', monospace" font-size="10" text-anchor="middle">Vercel</text>
    <text x="20" y="145" fill="#ffff00" font-family="'Courier New', monospace" font-size="11">⭐ 61</text>
    <text x="80" y="145" fill="#aaaaaa" font-family="'Courier New', monospace" font-size="11">🍴 18</text>
    <rect width="365" height="155" rx="6" fill="none" stroke="#00ffff" stroke-width="1">
      <animate attributeName="opacity" values="0.4;0.8;0.4" dur="4s" repeatCount="indefinite"/>
    </rect>
  </g>
</svg>
